<!-- Generated by IcoMoon.io -->
<svg version="1.1" xmlns="http://www.w3.org/2000/svg" width="32" height="32" viewBox="0 0 32 32">
<title>calendar-download</title>
<path fill="currentColor" d="M12.759 22h-9.425c-0.368 0-0.667-0.298-0.667-0.667v0-11.333c0-0.368 0.298-0.667 0.667-0.667v0h18c0.368 0 0.667 0.298 0.667 0.667v0 2.76c0.401-0.059 0.863-0.092 1.333-0.092s0.933 0.034 1.385 0.098l-0.052-0.006v-8.76c0-0.736-0.597-1.333-1.333-1.333v0h-3.333c-0.184 0-0.333-0.149-0.333-0.333v0-1.333c0-0.552-0.448-1-1-1s-1 0.448-1 1v0 5c0 0.552-0.448 1-1 1s-1-0.448-1-1v0-2.667c0-0.368-0.298-0.667-0.667-0.667v0h-5.667c-0.184 0-0.333-0.149-0.333-0.333v0-1.333c0-0.552-0.448-1-1-1s-1 0.448-1 1v0 5c0 0.552-0.448 1-1 1s-1-0.448-1-1v0-2.667c0-0.368-0.298-0.667-0.667-0.667v0h-3c-0.736 0-1.333 0.597-1.333 1.333v0 18c0 1.473 1.194 2.667 2.667 2.667v0h10.092c-0.059-0.401-0.092-0.863-0.092-1.333s0.033-0.933 0.098-1.385l-0.006 0.052z"></path>
<path fill="currentColor" d="M23.333 14.667c-4.786 0-8.667 3.88-8.667 8.667s3.88 8.667 8.667 8.667c4.786 0 8.667-3.88 8.667-8.667v0c-0.006-4.784-3.883-8.661-8.666-8.667h-0.001zM26.521 24.416l-2.667 3.333c-0.123 0.154-0.311 0.251-0.521 0.251s-0.398-0.098-0.52-0.25l-0.001-0.001-2.667-3.333c-0.091-0.113-0.146-0.258-0.146-0.416 0-0.368 0.298-0.667 0.667-0.667 0 0 0 0 0 0h1.667v-4c0-0.552 0.448-1 1-1s1 0.448 1 1v0 4h1.667c0 0 0 0 0 0 0.368 0 0.667 0.298 0.667 0.667 0 0.158-0.055 0.303-0.147 0.417l0.001-0.001z"></path>
</svg>
