<!-- Generated by IcoMoon.io -->
<svg version="1.1" xmlns="http://www.w3.org/2000/svg" width="32" height="32" viewBox="0 0 32 32">
<title>folder-connect</title>
<path fill="currentColor" d="M20.509 17c0.696-0.003 1.337 0.358 1.698 0.942l0.091 0.165 0.596 1.192c0.094 0.188 0.27 0.318 0.472 0.356l0.124 0.012h6.509c1.040 0 1.894 0.793 1.991 1.807l0.009 0.193v6.667c0 1.040-0.793 1.894-1.807 1.991l-0.193 0.009h-12c-1.040 0-1.894-0.793-1.991-1.807l-0.009-0.193v-9.333c0-1.040 0.793-1.894 1.807-1.991l0.193-0.009h2.509zM8.333 24c0.552 0 1 0.448 1 1 0 0.506-0.376 0.925-0.864 0.991l-0.136 0.009h-1.333c-0.552 0-1-0.448-1-1 0-0.506 0.376-0.925 0.864-0.991l0.136-0.009h1.333zM12.333 24h1.333c0.552 0 1 0.448 1 1 0 0.506-0.376 0.925-0.864 0.991l-0.136 0.009h-1.333c-0.552 0-1-0.448-1-1 0-0.506 0.376-0.925 0.864-0.991l0.136-0.009h1.333zM1 22c0.552 0 1 0.448 1 1v0 1h1c0.552 0 1 0.448 1 1s-0.448 1-1 1v0h-1.333c-0.92-0.001-1.665-0.747-1.667-1.667v0-1.333c0-0.552 0.448-1 1-1zM1 16.667c0.506 0 0.925 0.376 0.991 0.864l0.009 0.136v1.333c0 0.552-0.448 1-1 1-0.506 0-0.925-0.376-0.991-0.864l-0.009-0.136v-1.333c0-0.552 0.448-1 1-1zM1 11.333c0.506 0 0.925 0.376 0.991 0.864l0.009 0.136v1.333c0 0.552-0.448 1-1 1-0.506 0-0.925-0.376-0.991-0.864l-0.009-0.136v-1.333c0-0.552 0.448-1 1-1zM20.509 1c0.696-0.003 1.337 0.358 1.698 0.942l0.091 0.165 0.596 1.192c0.094 0.188 0.27 0.318 0.472 0.356l0.124 0.012h6.509c1.040 0 1.894 0.793 1.991 1.807l0.009 0.193v6.667c0 1.040-0.793 1.894-1.807 1.991l-0.193 0.009h-12c-1.040 0-1.894-0.793-1.991-1.807l-0.009-0.193v-9.333c0-1.040 0.793-1.894 1.807-1.991l0.193-0.009h2.509zM1 5.333c0.506 0 0.925 0.376 0.991 0.864l0.009 0.136v1h1c0.552 0 1 0.448 1 1 0 0.506-0.376 0.925-0.864 0.991l-0.136 0.009h-1.333c-0.862-0.001-1.571-0.657-1.658-1.496l-0.009-0.17v-1.333c0-0.552 0.448-1 1-1zM8.333 7.333c0.552 0 1 0.448 1 1 0 0.506-0.376 0.925-0.864 0.991l-0.136 0.009h-1.333c-0.552 0-1-0.448-1-1 0-0.506 0.376-0.925 0.864-0.991l0.136-0.009h1.333zM13.667 7.333c0.552 0 1 0.448 1 1 0 0.506-0.376 0.925-0.864 0.991l-0.136 0.009h-1.333c-0.552 0-1-0.448-1-1 0-0.506 0.376-0.925 0.864-0.991l0.136-0.009h1.333zM1 0c0.506 0 0.925 0.376 0.991 0.864l0.009 0.136v1.333c0 0.552-0.448 1-1 1-0.506 0-0.925-0.376-0.991-0.864l-0.009-0.136v-1.333c0-0.552 0.448-1 1-1z"></path>
</svg>
