<!-- Generated by IcoMoon.io -->
<svg version="1.1" xmlns="http://www.w3.org/2000/svg" width="34" height="32" viewBox="0 0 34 32">
<path fill="currentColor" d="M23.898 1.234c2.209 0 4 1.791 4 4v0.11c0 1.423-0.756 2.738-1.984 3.455l-3.023 1.764c-0.614 0.358-0.992 1.016-0.992 1.728v0.944h5c0.552 0 1 0.448 1 1s-0.448 1-1 1h-6c-0.552 0-1-0.448-1-1v-1.944c0-1.423 0.756-2.738 1.984-3.455l3.023-1.764c0.614-0.358 0.992-1.016 0.992-1.728v-0.11c0-1.105-0.895-2-2-2-0.934 0-1.803 0.614-2.057 1.333-0.081 0.23-0.238 0.412-0.433 0.527-0.246 0.145-0.552 0.185-0.843 0.082-0.521-0.184-0.794-0.755-0.61-1.276 0.57-1.611 2.264-2.667 3.943-2.667zM13.13 10.11l1.306 3.979c0.172 0.525-0.114 1.090-0.638 1.262s-1.090-0.114-1.262-0.638l-1.087-3.312h-5.772l-1.087 3.312c-0.172 0.525-0.737 0.811-1.262 0.638s-0.811-0.737-0.638-1.262l1.306-3.979c0.004-0.014 0.009-0.029 0.014-0.043l2.307-7.030c0.318-0.969 1.218-1.637 2.246-1.637s1.928 0.668 2.246 1.637l2.307 7.030c0.005 0.014 0.010 0.028 0.014 0.042zM8.217 3.662l-1.884 5.74h4.459l-1.884-5.74c-0.054-0.164-0.198-0.261-0.346-0.261s-0.292 0.097-0.346 0.261zM14.604 19.608c0.391-0.391 0.391-1.024 0-1.414s-1.024-0.391-1.414 0l-10.667 10.667c-0.391 0.391-0.391 1.024 0 1.414s1.024 0.391 1.414 0l10.667-10.667zM10.483 29.649c-0.375-0.375-0.586-0.884-0.586-1.414s0.211-1.039 0.586-1.414c0.375-0.375 0.884-0.586 1.414-0.586s1.039 0.211 1.414 0.586c0.375 0.375 0.586 0.884 0.586 1.414s-0.211 1.039-0.586 1.414c-0.375 0.375-0.884 0.586-1.414 0.586s-1.039-0.211-1.414-0.586zM3.816 21.649c-0.375-0.375-0.586-0.884-0.586-1.414s0.211-1.039 0.586-1.414 0.884-0.586 1.414-0.586c0.53 0 1.039 0.211 1.414 0.586s0.586 0.884 0.586 1.414c0 0.53-0.211 1.039-0.586 1.414s-0.884 0.586-1.414 0.586-1.039-0.211-1.414-0.586zM20.7 18.053c0.468-0.293 1.085-0.15 1.378 0.318l2.485 3.976 2.485-3.976c0.293-0.468 0.91-0.611 1.378-0.318s0.611 0.91 0.318 1.378l-2.377 3.803h4.196c0.552 0 1 0.448 1 1s-0.448 1-1 1h-4.196l2.377 3.803c0.293 0.468 0.15 1.085-0.318 1.378s-1.085 0.15-1.378-0.318l-2.485-3.977-2.485 3.977c-0.293 0.468-0.91 0.611-1.378 0.318s-0.611-0.91-0.318-1.378l2.377-3.803h-4.196c-0.552 0-1-0.448-1-1s0.448-1 1-1h4.196l-2.377-3.803c-0.293-0.468-0.15-1.085 0.318-1.378z"></path>
</svg>
