<!-- Generated by IcoMoon.io -->
<svg version="1.1" xmlns="http://www.w3.org/2000/svg" width="32" height="32" viewBox="0 0 32 32">
<title>share</title>
<path fill="currentColor" d="M28.275 14.661c2.025 0 3.667 1.642 3.667 3.667s-1.642 3.667-3.667 3.667c-0.735-0.002-1.453-0.229-2.056-0.649-0.108-0.074-0.249-0.079-0.361-0.012v0l-3.813 2.288c-0.099 0.061-0.152 0.177-0.133 0.292 0.015 0.104 0.025 0.183 0.025 0.237 0.007 0.13 0.088 0.244 0.209 0.292v0l3.259 1.304c0.121 0.048 0.26 0.021 0.355-0.068 1.174-1.117 2.941-1.334 4.351-0.536s2.132 2.425 1.779 4.007c-0.354 1.582-1.7 2.746-3.316 2.867s-3.122-0.828-3.708-2.338c-0.151-0.367-0.234-0.759-0.244-1.156-0.004-0.132-0.086-0.25-0.209-0.299v0l-3.265-1.307c-0.121-0.048-0.259-0.021-0.353 0.068-1.059 1.014-2.622 1.297-3.969 0.719s-2.219-1.905-2.215-3.371c0.005-2.022 1.645-3.659 3.667-3.661 0.736 0.002 1.454 0.228 2.057 0.649 0.108 0.074 0.249 0.079 0.361 0.012v0l3.784-2.283c0.115-0.068 0.177-0.197 0.16-0.329-0.019-0.13-0.028-0.262-0.029-0.393 0-2.025 1.642-3.667 3.667-3.667zM9.667 14c3.017 0.017 5.866 1.395 7.753 3.749 0.143 0.179 0.185 0.42 0.109 0.637s-0.258 0.379-0.482 0.43c-1.601 0.358-2.968 1.392-3.748 2.835-0.097 0.179-0.27 0.302-0.466 0.338l-0.12 0.011h-11.987c-0.211 0-0.409-0.1-0.534-0.268s-0.164-0.387-0.104-0.589c1.279-4.226 5.165-7.123 9.58-7.143zM9.392 0c3.498 0 6.333 2.836 6.333 6.333s-2.836 6.333-6.333 6.333c-3.498 0-6.333-2.836-6.333-6.333s2.836-6.333 6.333-6.333z"></path>
</svg>
