<!-- Generated by IcoMoon.io -->
<svg version="1.1" xmlns="http://www.w3.org/2000/svg" width="32" height="32" viewBox="0 0 32 32">
<title>phone-hand-hold</title>
<path fill="#ff3e60" d="M16 32c-0.007 0-0.016 0-0.024 0-2.456 0-4.495-1.782-4.895-4.124l-0.004-0.029-2.076 0.831v2.323c0 0.552-0.448 1-1 1s-1-0.448-1-1v0-3c0-0.412 0.247-0.776 0.629-0.928l3.269-1.308c0.271-0.11 0.5-0.225 0.718-0.356l-0.023 0.013c0.652-0.389 1.19-0.901 1.597-1.509l0.011-0.018 2.193-3.289c0.115-0.17 0.184-0.38 0.184-0.606s-0.069-0.436-0.187-0.61l0.002 0.004-0.035-0.047c-0.199-0.267-0.514-0.439-0.869-0.439-0.004 0-0.008 0-0.012 0h0.001c-0.246 0-0.473 0.082-0.655 0.221l0.003-0.002-2.228 1.673c-0.164 0.122-0.371 0.195-0.594 0.195-0.554 0-1.004-0.45-1.004-1.004 0-0.047 0.003-0.092 0.009-0.137l-0.001 0.005c0.039-0.271 0.182-0.503 0.387-0.657l0.003-0.002 0.6-0.449v-4.235l-3.407 1.457c-1.185 0.515-2.111 1.441-2.613 2.595l-0.012 0.032-1.564 3.659c-0.269 0.627-0.405 1.291-0.405 1.972v6.768c0 0 0 0 0 0.001 0 0.552-0.447 0.999-0.999 0.999s-0.999-0.447-0.999-0.999v-6.768c0-0.955 0.191-1.883 0.567-2.76l1.563-3.659c0.72-1.66 2.016-2.957 3.631-3.66l0.045-0.017 4.195-1.796v-7.34c0.003-2.76 2.24-4.997 5-5h10c2.76 0.003 4.997 2.24 5 5v22c-0.003 2.76-2.24 4.997-5 5h-10zM13 27c0.002 1.656 1.344 2.998 3 3h10c1.656-0.002 2.998-1.344 3-3v-1h-14.939c-0.317 0.325-0.664 0.618-1.038 0.875l-0.023 0.015v0.109zM29 24v-19c-0.002-1.656-1.344-2.998-3-3h-10c-1.656 0.002-2.998 1.344-3 3v12.288c0.426-0.24 0.935-0.381 1.478-0.381 0.158 0 0.313 0.012 0.465 0.035l-0.017-0.002c0.894 0.128 1.651 0.626 2.124 1.33l0.007 0.011c0.696 1.045 0.697 2.392 0.003 3.433l-1.524 2.285h13.465z"></path>
</svg>
